<svg width="40" height="40" viewBox="0 0 40 40" fill="none" xmlns="http://www.w3.org/2000/svg">
<path d="M20 28.3334C20.884 28.3334 21.7319 27.9822 22.357 27.3571C22.9821 26.732 23.3333 25.8841 23.3333 25.0001C23.3333 24.116 22.9821 23.2682 22.357 22.6431C21.7319 22.0179 20.884 21.6667 20 21.6667C19.1159 21.6667 18.2681 22.0179 17.6429 22.6431C17.0178 23.2682 16.6666 24.116 16.6666 25.0001C16.6666 25.8841 17.0178 26.732 17.6429 27.3571C18.2681 27.9822 19.1159 28.3334 20 28.3334ZM30 13.3334C30.884 13.3334 31.7319 13.6846 32.357 14.3097C32.9821 14.9348 33.3333 15.7827 33.3333 16.6667V33.3334C33.3333 34.2175 32.9821 35.0653 32.357 35.6904C31.7319 36.3156 30.884 36.6667 30 36.6667H9.99996C9.1159 36.6667 8.26806 36.3156 7.64294 35.6904C7.01782 35.0653 6.66663 34.2175 6.66663 33.3334V16.6667C6.66663 15.7827 7.01782 14.9348 7.64294 14.3097C8.26806 13.6846 9.1159 13.3334 9.99996 13.3334H11.6666V10.0001C11.6666 7.78994 12.5446 5.67033 14.1074 4.10752C15.6702 2.54472 17.7898 1.66675 20 1.66675C21.0943 1.66675 22.1779 1.8823 23.189 2.30109C24.2 2.71987 25.1187 3.3337 25.8925 4.10752C26.6663 4.88135 27.2802 5.80001 27.699 6.81105C28.1177 7.8221 28.3333 8.90573 28.3333 10.0001V13.3334H30ZM20 5.00008C18.6739 5.00008 17.4021 5.52687 16.4644 6.46455C15.5267 7.40223 15 8.674 15 10.0001V13.3334H25V10.0001C25 8.674 24.4732 7.40223 23.5355 6.46455C22.5978 5.52687 21.326 5.00008 20 5.00008Z" fill="black"/>
</svg>
